<svg xmlns="http://www.w3.org/2000/svg" viewBox="0 0 60 60" width="512" height="512"><g fill="#04B468"><path d="M55.2 15.5h-8.523l-4-10H17.323l-4 10H12v-5H6v5H4.8C2.15 15.5 0 17.652 0 20.3v29.367C0 52.332 2.168 54.5 4.833 54.5h50.334c2.665 0 4.833-2.168 4.833-4.833V20.3c0-2.648-2.152-4.8-4.8-4.8zM8 12.5h2v3H8v-3zm50 37.167c0 1.563-1.27 2.833-2.833 2.833H4.833C3.27 52.5 2 51.23 2 49.667V20.3c0-1.544 1.256-2.8 2.8-2.8h9.877l4-10h22.646l4 10H55.2c1.544 0 2.8 1.256 2.8 2.8v29.367z"/><path d="M30 14.5c-9.925 0-18 8.075-18 18s8.075 18 18 18 18-8.075 18-18-8.075-18-18-18zm0 34c-8.822 0-16-7.178-16-16s7.178-16 16-16 16 7.178 16 16-7.178 16-16 16z"/><path d="M30 20.5c-6.617 0-12 5.383-12 12s5.383 12 12 12 12-5.383 12-12-5.383-12-12-12zm0 22c-5.514 0-10-4.486-10-10s4.486-10 10-10 10 4.486 10 10-4.486 10-10 10zM52 19.5c-2.206 0-4 1.794-4 4s1.794 4 4 4 4-1.794 4-4-1.794-4-4-4zm0 6c-1.103 0-2-.897-2-2s.897-2 2-2 2 .897 2 2-.897 2-2 2z"/></g></svg>