<svg xmlns="http://www.w3.org/2000/svg" viewBox="0 0 297 297" width="512" height="512"><path d="M159.61 133.612c.073 1.865.296 3.75.674 5.64l4.435 22.173c3.935 19.678 22.738 35.092 42.806 35.092h31.855c20.362 0 37.93-16.535 39.16-36.858l.775-12.78 14.94-14.942c1.758-1.758 2.745-4.14 2.745-6.625v-15.46c0-5.173-4.195-9.368-9.37-9.368H179.42c-6.673 0-15.516 2.963-20.648 10.366-7.17-2.68-14.298-2.045-20.378.225-5.107-7.573-14.07-10.59-20.81-10.59H9.368c-5.176 0-9.37 4.195-9.37 9.37v15.458c0 2.485.987 4.867 2.744 6.625l14.94 14.942.776 12.78c1.232 20.322 18.798 36.857 39.16 36.857h31.853c20.067 0 38.87-15.414 42.807-35.093l4.434-22.172c.37-1.86.594-3.716.67-5.554 11.116-8.386 22.225-.086 22.225-.086zm-136.37-8.488c-1.31 1.312-3.128 2.062-4.974 2.062s-3.654-.75-4.965-2.062c-1.312-1.302-2.06-3.11-2.06-4.966 0-1.856.748-3.663 2.06-4.965 1.312-1.313 3.12-2.062 4.966-2.062 1.854 0 3.664.75 4.975 2.063 1.305 1.302 2.054 3.12 2.054 4.965 0 1.846-.75 3.664-2.053 4.966zm95.102 10.452l-4.435 22.172c-2.172 10.858-13.36 20.03-24.433 20.03H57.62c-10.455 0-19.823-8.817-20.456-19.254L35.88 137.34c-.294-4.856 1.313-9.41 4.526-12.825 3.213-3.414 7.662-5.294 12.53-5.294h51.997c4.617 0 8.52 1.66 10.986 4.668 2.467 3.01 3.327 7.16 2.422 11.688zm142.778 1.766l-1.284 21.184c-.633 10.436-10 19.253-20.456 19.253h-31.855c-11.072 0-22.26-9.173-24.433-20.03l-4.435-22.174c-.905-4.526-.045-8.677 2.422-11.686 2.466-3.01 6.368-4.667 10.985-4.667h51.998c4.867 0 9.316 1.88 12.53 5.294 3.215 3.413 4.82 7.967 4.527 12.825zm22.582-12.218c-1.31 1.312-3.13 2.062-4.975 2.062-1.847 0-3.654-.75-4.966-2.062-1.31-1.302-2.06-3.11-2.06-4.966 0-1.856.75-3.663 2.06-4.965 1.312-1.313 3.12-2.062 4.967-2.062 1.855 0 3.663.75 4.975 2.063 1.303 1.302 2.052 3.12 2.052 4.965 0 1.846-.75 3.664-2.052 4.966z" fill="#04B468"/></svg>