<svg xmlns="http://www.w3.org/2000/svg" viewBox="0 0 496.158 496.158"><path d="M248.082.003C111.07.003 0 111.06 0 248.085c0 137 111.07 248.07 248.082 248.07 137.006 0 248.076-111.07 248.076-248.07C496.158 111.06 385.088.003 248.082.003z" fill="#56B48C"/><path d="M278.767 145.42c-3.126-4.004-7.276-6.007-12.45-6.007-4.592 0-7.717.88-9.376 2.637-1.66 1.758-5.225 6.445-10.692 14.063-5.47 7.617-11.744 14.502-18.823 20.654-7.082 6.152-16.53 12.012-28.345 17.578-7.91 3.712-13.43 6.738-16.553 9.082-3.126 2.344-4.688 6.006-4.688 10.986 0 4.298 1.585 8.082 4.76 11.353 3.172 3.273 6.812 4.907 10.913 4.907 8.592 0 25.292-9.52 50.098-28.564v133.3c0 7.814 1.807 13.722 5.42 17.725 3.613 4.003 8.398 6.006 14.356 6.006 13.378 0 20.068-9.813 20.068-29.442V161.972c0-7.03-1.562-12.547-4.687-16.553z" fill="#FFF"/></svg>