<svg xmlns="http://www.w3.org/2000/svg" viewBox="0 0 496.158 496.158"><path d="M248.082.003C111.07.003 0 111.06 0 248.085c0 137 111.07 248.07 248.082 248.07 137.006 0 248.076-111.07 248.076-248.07C496.158 111.06 385.088.003 248.082.003z" fill="#56B48C"/><path d="M319.637 269.71c-2.637-6.394-6.57-12.23-11.792-17.504-5.226-5.273-11.646-9.96-19.263-14.063 7.91-6.64 13.99-13.45 18.237-20.435 4.247-6.98 6.37-15.355 6.37-25.122 0-7.42-1.464-14.355-4.394-20.8s-7.276-12.11-13.037-16.993c-5.764-4.882-12.55-8.617-20.362-11.206-7.814-2.586-16.457-3.882-25.928-3.882-10.84 0-20.654 1.538-29.443 4.614s-16.14 7.154-22.046 12.23c-5.91 5.08-10.4 10.426-13.476 16.04-3.076 5.617-4.614 10.963-4.614 16.04 0 5.273 1.634 9.5 4.907 12.67 3.27 3.176 6.86 4.762 10.767 4.762 3.32 0 6.25-.586 8.79-1.758 2.537-1.172 4.295-2.783 5.272-4.834 1.66-3.81 3.49-7.86 5.493-12.158 2-4.296 4.124-7.812 6.37-10.547 2.246-2.733 5.297-4.93 9.156-6.592 3.856-1.66 8.764-2.49 14.722-2.49 8.79 0 15.77 2.71 20.947 8.13 5.175 5.42 7.764 11.89 7.764 19.41 0 9.864-3.25 17.43-9.742 22.704-6.496 5.273-14.234 7.91-23.218 7.91h-6.006c-6.935 0-12.158 1.442-15.674 4.32-3.516 2.883-5.273 6.666-5.273 11.354 0 4.787 1.465 8.522 4.395 11.207 2.93 2.687 7.08 4.028 12.45 4.028 1.173 0 3.81-.194 7.91-.586 4.103-.39 7.128-.587 9.083-.587 11.133 0 19.823 3.248 26.074 9.74 6.248 6.497 9.374 15.455 9.374 26.88 0 7.717-1.83 14.503-5.493 20.362s-8.3 10.28-13.915 13.257c-5.617 2.98-11.45 4.468-17.505 4.468-10.547 0-18.727-3.296-24.536-9.888-5.812-6.592-11.256-16.674-16.333-30.25-.782-2.244-2.44-4.174-4.98-5.785-2.54-1.61-5.176-2.417-7.91-2.417-5.47 0-10.033 1.735-13.695 5.2-3.662 3.468-5.493 8.034-5.493 13.696 0 4.395 1.538 9.96 4.614 16.7s7.617 13.256 13.623 19.555 13.645 11.55 22.924 15.748c9.276 4.198 19.775 6.3 31.494 6.3 11.522 0 22.046-1.832 31.567-5.494s17.748-8.74 24.683-15.234c6.933-6.493 12.18-13.89 15.747-22.192 3.563-8.3 5.347-16.894 5.347-25.78 0-7.42-1.32-14.33-3.955-20.727z" fill="#FFF"/></svg>