<svg xmlns="http://www.w3.org/2000/svg" viewBox="0 0 496.158 496.158"><path d="M248.082.003C111.07.003 0 111.06 0 248.085c0 137 111.07 248.07 248.082 248.07 137.006 0 248.076-111.07 248.076-248.07C496.158 111.06 385.088.003 248.082.003z" fill="#56B48C"/><path d="M319.783 325.595c-4.005-3.124-9.814-4.688-17.432-4.688h-76.464c2.44-3.71 4.834-6.885 7.178-9.52 5.468-6.64 15.55-15.968 30.25-27.98 14.695-12.012 25.17-20.824 31.42-26.44 6.25-5.614 12.378-13.378 18.384-23.29 6.006-9.912 9.01-20.923 9.01-33.033 0-7.713-1.443-15.16-4.322-22.34-2.882-7.177-6.91-13.5-12.085-18.97-5.176-5.467-11.182-9.763-18.017-12.89-10.547-4.688-23.29-7.03-38.232-7.03-12.402 0-23.217 1.83-32.445 5.492s-16.846 8.473-22.852 14.43c-6.006 5.957-10.524 12.597-13.55 19.92-3.028 7.325-4.54 14.356-4.54 21.095 0 5.567 1.61 9.962 4.833 13.185s7.274 4.834 12.158 4.834c5.566 0 9.79-1.76 12.67-5.274 2.88-3.516 5.47-8.544 7.765-15.088 2.292-6.542 3.93-10.547 4.906-12.012 7.324-11.23 17.38-16.846 30.176-16.846 6.054 0 11.646 1.37 16.772 4.102 5.127 2.735 9.178 6.57 12.158 11.5 2.978 4.932 4.468 10.523 4.468 16.77 0 5.764-1.392 11.647-4.175 17.652s-6.837 11.865-12.158 17.578c-5.324 5.713-11.99 11.403-19.995 17.065-4.493 3.028-11.964 9.352-22.412 18.97-10.45 9.62-22.17 21.167-35.156 34.644-3.126 3.322-6.006 7.888-8.643 13.697-2.636 5.812-3.954 10.474-3.954 13.99 0 5.47 2.05 10.23 6.152 14.28 4.102 4.055 9.814 6.08 17.14 6.08H306.6c6.445 0 11.254-1.66 14.43-4.98 3.17-3.32 4.76-7.372 4.76-12.158 0-5.37-2.004-9.618-6.007-12.745z" fill="#FFF"/></svg>