<svg xmlns="http://www.w3.org/2000/svg" width="512" height="512" viewBox="0 0 94 94"><path d="M89 0H5C2.238 0 0 2.24 0 5v84c0 2.76 2.238 5 5 5h84c2.762 0 5-2.24 5-5V5c0-2.76-2.238-5-5-5zM74.87 52.943c2.56 2.5 5.27 4.854 7.57 7.617 1.02 1.22 1.98 2.48 2.71 3.9 1.04 2.023.1 4.246-1.713 4.365l-11.256-.003c-2.905.24-5.22-.93-7.17-2.918-1.556-1.585-3.002-3.277-4.5-4.914-.612-.673-1.26-1.306-2.026-1.806-1.534-.996-2.867-.692-3.748.91-.896 1.63-1.103 3.437-1.185 5.254-.124 2.655-.924 3.348-3.587 3.47-5.69.27-11.09-.595-16.108-3.462-4.43-2.53-7.854-6.104-10.838-10.146-5.816-7.883-10.27-16.536-14.27-25.437-.9-2.005-.242-3.078 1.967-3.12 3.676-.072 7.35-.062 11.022-.003 1.496.023 2.485.88 3.058 2.29 1.985 4.884 4.42 9.532 7.47 13.842.814 1.147 1.644 2.292 2.824 3.103 1.304.896 2.298.6 2.913-.854.394-.927.564-1.913.648-2.905.292-3.396.327-6.792-.177-10.175-.314-2.116-1.506-3.483-3.616-3.883-1.074-.204-.917-.602-.395-1.215.905-1.062 1.76-1.718 3.455-1.718l12.72-.002c2.007.392 2.453 1.292 2.726 3.31l.013 14.134c-.02.782.39 3.098 1.795 3.61 1.123.37 1.868-.53 2.54-1.244 3.048-3.235 5.22-7.056 7.167-11.01.857-1.742 1.6-3.548 2.32-5.355.533-1.337 1.367-1.995 2.875-1.97l12.246.012c.36 0 .73.003 1.086.062 2.062.355 2.627 1.243 1.99 3.257-1.004 3.162-2.96 5.798-4.87 8.44-2.044 2.825-4.225 5.557-6.253 8.396-1.86 2.604-1.71 3.912.6 6.167z" fill="#BDBDBD"/></svg>