<?xml version="1.0" encoding="iso-8859-1"?>
<!-- Generator: Adobe Illustrator 19.0.0, SVG Export Plug-In . SVG Version: 6.00 Build 0)  -->
<svg version="1.1" id="Layer_1" xmlns="http://www.w3.org/2000/svg" xmlns:xlink="http://www.w3.org/1999/xlink" x="0px" y="0px"
	 viewBox="0 0 512 512" style="enable-background:new 0 0 512 512;" xml:space="preserve">
<rect style="fill:#FCD577;" width="512" height="512"/>
<path style="fill:#C4A457;" d="M332.395,215.443h46.674c6.654,0,12.048-5.394,12.048-12.048V95.841
	c0-6.654-5.394-12.048-12.048-12.048h-46.674c-6.654,0-12.048,5.394-12.048,12.048v107.555
	C320.347,210.049,325.741,215.443,332.395,215.443z"/>
<path style="fill:#FFFFFF;" d="M128.864,351.279c-14.995,0-28.251,6.149-36.335,15.568v42.877
	c8.083,9.419,21.34,15.568,36.335,15.568c24.627,0,44.592-16.569,44.592-37.006C173.455,367.848,153.491,351.279,128.864,351.279z"
	/>
<path style="fill:#E25749;" d="M128.864,432.322c-16.409,0-31.986-6.736-41.67-18.019c-2.528-2.946-2.189-7.384,0.757-9.913
	c2.947-2.528,7.385-2.189,9.913,0.757c7.049,8.213,18.638,13.116,31,13.116c20.712,0,37.562-13.447,37.562-29.976
	c0-16.529-16.85-29.976-37.562-29.976c-12.362,0-23.951,4.903-31,13.116c-2.528,2.946-6.967,3.285-9.913,0.757
	c-2.946-2.528-3.285-6.966-0.757-9.913c9.683-11.283,25.261-18.019,41.67-18.019c28.464,0,51.622,19.755,51.622,44.036
	C180.486,412.567,157.328,432.322,128.864,432.322z"/>
<polygon style="fill:#415E72;" points="512,54.039 512,0 0,0 0,511.999 338.963,511.999 338.963,471.24 276.179,471.24 
	276.179,368.329 235.819,368.329 235.819,471.24 40.36,471.24 40.36,301.742 314.524,301.742 314.524,261.384 105.699,261.384 
	75.023,261.384 40.36,261.384 40.36,39.96 235.819,39.96 235.819,188.405 276.179,188.405 276.179,39.96 471.64,39.96 
	471.64,261.384 421.092,261.384 421.092,301.742 471.64,301.742 471.64,471.24 416.177,471.24 416.177,511.999 512,511.999 
	512,88.122 "/>
<g>
	<path style="fill:#FFFFFF;" d="M79.096,346.477H40.36v83.625h38.736c9.292,0,16.824-7.532,16.824-16.824V363.3
		C95.919,354.01,88.386,346.477,79.096,346.477z"/>
	<path style="fill:#FFFFFF;" d="M149.57,46.99H47.39v180.354h50.264c28.673,0,51.916-23.244,51.916-51.916
		C149.57,175.428,149.57,46.99,149.57,46.99z"/>
</g>
<path style="fill:#CFDCE5;" d="M97.654,234.374H40.36V39.96h116.241v135.467C156.6,207.93,130.158,234.374,97.654,234.374z
	 M54.42,220.314h43.235c24.75,0,44.887-20.136,44.887-44.886V54.02H54.42V220.314z"/>
<rect x="448.578" y="83.795" style="fill:#344F5E;" width="23.058" height="131.649"/>
<path style="fill:#B2934D;" d="M355.492,109.783h35.623v79.671h-35.623c-6.003,0-10.871-4.867-10.871-10.871v-57.929
	C344.622,114.65,349.489,109.783,355.492,109.783z"/>
<g>
	<path style="fill:#CFDCE5;" d="M98.48,88.335c-3.529,0-6.391-2.862-6.391-6.391V46.99c0-3.529,2.862-6.391,6.391-6.391
		c3.529,0,6.391,2.862,6.391,6.391v34.955C104.871,85.474,102.009,88.335,98.48,88.335z"/>
	<path style="fill:#CFDCE5;" d="M123.404,69.163c-3.529,0-6.391-2.862-6.391-6.391V46.99c0-3.529,2.862-6.391,6.391-6.391
		c3.529,0,6.391,2.862,6.391,6.391v15.783C129.795,66.301,126.933,69.163,123.404,69.163z"/>
	<path style="fill:#CFDCE5;" d="M73.556,69.163c-3.529,0-6.391-2.862-6.391-6.391V46.99c0-3.529,2.862-6.391,6.391-6.391
		c3.529,0,6.391,2.862,6.391,6.391v15.783C79.947,66.301,77.085,69.163,73.556,69.163z"/>
</g>
<g>
	<circle style="fill:#415E72;" cx="97.727" cy="173.048" r="9.373"/>
	<circle style="fill:#415E72;" cx="123.622" cy="388.288" r="9.373"/>
</g>
<g>
</g>
<g>
</g>
<g>
</g>
<g>
</g>
<g>
</g>
<g>
</g>
<g>
</g>
<g>
</g>
<g>
</g>
<g>
</g>
<g>
</g>
<g>
</g>
<g>
</g>
<g>
</g>
<g>
</g>
</svg>
